# xmcd
# Copyright (c) 1998 CDDB Inc.
#
# Track frame offsets:
#	150
#	16663
#	31727
#	48389
#	60262
#	74871
#	85846
#	104899
#	119958
#	134720
#	147864
#	162820
#	175189
#	200946
#	214574
#	233623
#	245417
#	256387
#	268737
#	285529
#	297903
#	313349
#	329524
#	342966
#
# Disc length: 4729 seconds
#
# Revision: 0
# Processed by: cddbd v1.5.2PL0 Copyright (c) Steve Scherf et al.
# Submitted via: AudioCatalyst 2.10full
#
DISCID=7e127718
DTITLE=Cézar Menotti e Fabiano - 2007 ao vivo
DYEAR=1900
DGENRE=
TTITLE0=Eu bebi por ela
TTITLE1=Leilão
TTITLE2=Eu vou doar meu coração
TTITLE3=Feiticeira
TTITLE4=Na hora do adeus
TTITLE5=Aqui não
TTITLE6=Tentei te esquecer-coração está em pedaços
TTITLE7=Vida cigana
TTITLE8=Paixão mineira
TTITLE9=Esperando na janela
TTITLE10=Caso marcado
TTITLE11=Tô fora
TTITLE12=Lugar melhor que BH-magia e mistério
TTITLE13=Sem medo de ser feliz
TTITLE14=Deixa eu te amar
TTITLE15=Sempre seu homem
TTITLE16=É o amor
TTITLE17=Bão tambêm
TTITLE18=Nova York-o que tiver que vir virá
TTITLE19=Mensagem pra ela
TTITLE20=Amargurado
TTITLE21=Me apaixonei a primera vez que te vi
TTITLE22=Como um anjo
TTITLE23=Fica comigo
EXTD=
EXTT0=
EXTT1=
EXTT2=
EXTT3=
EXTT4=
EXTT5=
EXTT6=
EXTT7=
EXTT8=
EXTT9=
EXTT10=
EXTT11=
EXTT12=
EXTT13=
EXTT14=
EXTT15=
EXTT16=
EXTT17=
EXTT18=
EXTT19=
EXTT20=
EXTT21=
EXTT22=
EXTT23=
PLAYORDER=
